<?xml version="1.0" encoding="UTF-8" standalone="no"?>
<svg xmlns:svg="http://www.w3.org/2000/svg" xmlns="http://www.w3.org/2000/svg" version="1.0" width="467.71631" height="467.71655" id="svg2171" ml-update="aware">
  <defs id="defs2173"/>
  <g transform="translate(608.14387,107.21038)" id="layer1">
    <g transform="translate(-608.14387,-107.21038)" style="overflow:visible" id="Hilfslinien_anzeigen">
		</g>
    <g transform="translate(-608.14387,-107.21038)" style="overflow:visible" id="Vordergrund">
			<g id="g8">
				<rect width="467.71631" height="467.71655" x="0" y="0" style="fill:#787878" id="rect10"/>
 
				<path style="fill:#787878" id="path12"/>

			</g>

			<path d="M 255.50049,65.21167 C 263.00049,65.71167 298.50049,63.71167 325.00049,90.71167 C 351.50049,117.71167 356.50049,181.21167 333.00049,214.21167 C 309.50049,247.21167 272.00049,250.71167 272.00049,250.71167 C 272.00049,250.71167 277.50049,254.21167 286.50049,261.21167 C 295.50049,268.21167 307.50049,281.71167 318.50049,300.71167 C 329.50049,319.71167 371.01611,396.21167 371.01611,396.21167 L 301.00049,396.21167 C 301.00049,396.21167 235.50049,283.71167 226.50049,273.71167 C 217.50049,263.71167 212.04737,257.21167 167.54737,257.71167 L 167.50049,396.21167 L 108.50049,396.21167 L 108.50049,65.71167 L 255.50049,65.21167 z M 287.00049,164.21167 C 286.25049,116.96167 243.51611,121.21167 243.51611,121.21167 L 167.50049,121.21167 L 167.50049,204.71167 L 243.50049,204.71167 C 243.50049,204.71167 287.69092,207.71021 287.00049,164.21167 z " style="fill:#ffffff;fill-rule:evenodd" id="path14"/>

		</g>
  </g>
</svg>