<?xml version="1.0" encoding="UTF-8" standalone="no"?>
<svg xmlns:svg="http://www.w3.org/2000/svg" xmlns="http://www.w3.org/2000/svg" version="1.1" width="800px" height="800px" viewBox="0 0 800 800" xml:space="preserve" style="stroke:none; fill:#ffffff;" ml-update="aware">
	<defs/>
	<circle cx="400" cy="400" r="400" style="fill:#00586a"/>
	<path d="M 263.3,458.3 C 263.3,421.4 235.8,397.7 202.3,392.6 232.8,380.8 253.1,362.6 253.1,329.2 252.7,278 214.6,259.8 168.5,259.8 H 78.31 V 542.1 H 174.4 C 224.8,542.1 263.3,509.9 263.3,458.3 M 199.8,335.9 C 199.8,361.8 183.3,376.6 157.9,376.6 H 131.6 V 300 H 161.7 C 185.8,300 199.8,312.2 199.8,335.9 z M 208.7,457 C 208.7,483.2 194.7,501.4 166.8,501.4 H 131.6 V 416.4 H 168 C 192.2,416.4 208.7,432.4 208.7,457 z"/>
	<path d="M 517.1,440.1 V 259.8 H 463.8 V 436.7 C 463.8,471.8 454.5,504 416,504 377.9,504 368.2,471.8 368.2,436.7 V 259.8 H 314.8 V 440.1 C 314.8,506.9 347.4,546.7 416,546.7 482.4,546.7 517.1,506.9 517.1,440.1"/>
	<path d="M 735.6,459.1 C 735.6,363 622.6,395.6 622.6,333.4 622.6,302.1 643.7,295.3 670.8,295.3 686.9,295.3 702.6,297.8 717,304.2 L 727.5,263.1 C 708.1,258.1 688.2,255.1 667.9,255.1 616.2,255.1 568.8,280.1 568.8,337.2 568.8,435.4 680.1,399 680.1,462.9 680.1,497.6 652.6,506.9 623.4,506.9 605.6,506.9 585.8,503.5 569.7,495.9 L 568.8,538.7 C 588.7,545 609.9,546.7 631,546.7 685.2,546.7 735.6,519.6 735.6,459.1"/>
</svg>