<?xml version="1.0" encoding="utf-8"?>

<!DOCTYPE svg PUBLIC "-//W3C//DTD SVG 1.0//EN"    "http://www.w3.org/TR/2001/REC-SVG-20010904/DTD/svg10.dtd">

<svg  
    xmlns="http://www.w3.org/2000/svg" 
    xmlns:xlink="http://www.w3.org/1999/xlink" 
    width="1059.674" 
    height="464.977" 
    viewBox="0 0 1059.674 464.977" 
    overflow="visible" 
    enable-background="new 0 0 1059.674 464.977" 
    xml:space="preserve"
>

<g id="Muenchen_S3">

  <path id="Ei" fill="#7B107D" d="M787.5,0H272.173C143.773,0,0,104.088,0,232.488c0,128.4,143.773,232.488,272.173,232.488H787.5
  	c128.4,0,272.174-104.088,272.174-232.488C1059.674,104.088,915.901,0,787.5,0z"/>

  <g id="Univers_75_Black_504pt">
    <path id="_S" fill="#FFFFFF" d="M303.041,299.12c0.504,14.616,1.512,56.448,61.487,56.448c8.568,0,53.928,0,53.928-41.328
    	c0-17.136-7.056-28.728-31.248-35.28l-89.207-23.184c-25.2-6.552-90.216-23.688-90.216-99.791
    	c0-58.968,44.352-113.904,153.215-113.904c142.127,0,148.175,77.112,148.679,115.919H407.368
    	c0-11.088,0.504-50.399-47.879-50.399c-29.232,0-47.88,16.632-47.88,38.304c0,26.712,22.176,33.264,36.792,37.296l68.04,17.64
    	c48.384,12.6,105.84,27.721,105.84,104.832c0,81.144-69.552,117.432-160.776,117.432c-37.8,0-98.783-6.049-132.047-43.344
    	c-26.712-29.232-27.216-65.016-27.72-80.641H303.041z"/>
    <path id="_3" fill="#FFFFFF" d="M654.826,314.24c1.008,22.681,13.104,42.336,50.903,42.336
    	c42.336,0,54.432-24.696,54.432-46.368c0-44.855-53.424-44.855-73.584-44.855c-11.088,0-21.168,0.504-27.72,1.008v-62.496
    	c13.104,0.504,32.256,1.512,52.92-1.512c43.344-6.048,43.344-40.32,43.344-44.352c0-24.192-19.151-39.312-47.376-39.312
    	c-17.136,0-43.344,6.048-44.855,40.32h-97.271c2.52-73.08,66.023-104.832,145.655-104.832
    	c90.72,0,139.607,39.816,139.607,92.735c0,42.336-33.264,78.119-81.144,83.16v2.52c18.647,2.016,88.199,10.08,88.199,85.176
    	c0,25.199-8.063,53.424-36.792,74.088c-17.136,12.6-45.359,29.735-114.407,29.735c-57.96,0-96.264-12.096-122.976-40.319
    	c-24.191-25.2-25.703-50.904-26.712-67.032H654.826z"/>
  </g>

</g>
</svg>
