<?xml version="1.0" encoding="utf-8"?>

<!DOCTYPE svg PUBLIC "-//W3C//DTD SVG 1.0//EN"    "http://www.w3.org/TR/2001/REC-SVG-20010904/DTD/svg10.dtd">

<svg  
    xmlns="http://www.w3.org/2000/svg" 
    xmlns:xlink="http://www.w3.org/1999/xlink" 
    width="1059.674" 
    height="464.977" 
    viewBox="0 0 1059.674 464.977" 
    overflow="visible" 
    enable-background="new 0 0 1059.674 464.977" 
    xml:space="preserve"
>

<g id="Muenchen_S4">

  <path id="Ei" fill="#EE1C25" d="M787.5,0H272.173C143.773,0,0,104.088,0,232.488c0,128.4,143.773,232.488,272.173,232.488H787.5
  	c128.4,0,272.174-104.088,272.174-232.488C1059.674,104.088,915.901,0,787.5,0z"/>

  <g id="Univers_75_Black_504pt">
    <path id="S" fill="#FFFFFF" d="M303.042,299.123c0.504,14.615,1.512,56.447,61.487,56.447c8.568,0,53.928,0,53.928-41.328
    	c0-17.136-7.056-28.728-31.248-35.279l-89.208-23.184c-25.2-6.553-90.216-23.688-90.216-99.792
    	c0-58.968,44.352-113.904,153.215-113.904c142.127,0,148.175,77.112,148.679,115.919H407.369
    	c0-11.088,0.504-50.399-47.879-50.399c-29.232,0-47.88,16.632-47.88,38.304c0,26.712,22.176,33.264,36.792,37.296l68.04,17.64
    	c48.384,12.6,105.84,27.72,105.84,104.831c0,81.145-69.552,117.432-160.776,117.432c-37.8,0-98.783-6.047-132.047-43.344
    	c-26.712-29.231-27.216-65.016-27.72-80.639H303.042z"/>
    <path id="4" fill="#FFFFFF" d="M721.858,345.49h-168.84v-82.151L700.69,63.755h111.887v217.727h56.447v64.008h-56.447v69.552h-90.719
    	V345.49z M723.37,281.482V137.843L618.034,281.482H723.37z"/>
  </g>

</g>
</svg>
