<?xml version="1.0" encoding="utf-8"?>

<!DOCTYPE svg PUBLIC "-//W3C//DTD SVG 1.0//EN"    "http://www.w3.org/TR/2001/REC-SVG-20010904/DTD/svg10.dtd">

<svg  
    xmlns="http://www.w3.org/2000/svg" 
    xmlns:xlink="http://www.w3.org/1999/xlink" 
    width="1059.674" 
    height="464.977" 
    viewBox="0 0 1059.674 464.977" 
    overflow="visible" 
    enable-background="new 0 0 1059.674 464.977" 
    xml:space="preserve"
>

<g id="Muenchen_S6">

  <path id="Ei" fill="#008A51" d="M787.5,0H272.173C143.773,0,0,104.088,0,232.488c0,128.4,143.773,232.488,272.173,232.488H787.5
  	c128.4,0,272.174-104.088,272.174-232.488C1059.674,104.088,915.901,0,787.5,0z"/>

  <g id="Univers_75_Black_504pt">
    <path id="S" fill="#FFFFFF" d="M303.042,299.123c0.504,14.615,1.512,56.447,61.487,56.447c8.568,0,53.928,0,53.928-41.328
    	c0-17.136-7.056-28.728-31.248-35.279l-89.208-23.184c-25.2-6.553-90.216-23.688-90.216-99.792
    	c0-58.968,44.352-113.904,153.215-113.904c142.127,0,148.175,77.112,148.679,115.919H407.369
    	c0-11.088,0.504-50.399-47.879-50.399c-29.232,0-47.88,16.632-47.88,38.304c0,26.712,22.176,33.264,36.792,37.296l68.04,17.64
    	c48.384,12.6,105.84,27.72,105.84,104.831c0,81.145-69.552,117.432-160.776,117.432c-37.8,0-98.783-6.047-132.047-43.344
    	c-26.712-29.231-27.216-65.016-27.72-80.639H303.042z"/>
    <path id="_6" fill="#FFFFFF" d="M752.603,151.956c-1.512-16.128-8.568-25.2-17.137-30.744c-8.063-5.04-17.135-6.048-22.68-6.048
    	c-27.719,0-42.336,20.664-49.895,39.816c-8.568,21.168-8.064,49.392-8.064,68.04c8.568-12.6,29.736-43.848,89.711-43.848
    	c70.057,0,115.92,45.36,115.92,114.408c0,97.271-80.641,128.52-143.639,128.52c-41.832,0-90.721-11.592-120.457-56.447
    	c-20.664-30.744-33.264-70.057-33.264-126c0-91.224,36.289-183.959,155.736-183.959c46.871,0,122.471,14.112,125.998,96.264
    	H752.603z M718.331,239.148c-35.785,0-55.945,24.191-55.945,60.479c0,44.353,28.225,57.456,53.928,57.456
    	c35.281,0,55.441-23.688,55.441-58.969C771.755,285.515,768.729,239.148,718.331,239.148z"/>
  </g>

</g>
</svg>
