<?xml version="1.0" encoding="utf-8"?>

<!DOCTYPE svg PUBLIC "-//W3C//DTD SVG 1.0//EN"    "http://www.w3.org/TR/2001/REC-SVG-20010904/DTD/svg10.dtd">

<svg  
    xmlns="http://www.w3.org/2000/svg" 
    xmlns:xlink="http://www.w3.org/1999/xlink" 
    width="1059.674" 
    height="464.977" 
    viewBox="0 0 1059.674 464.977" 
    overflow="visible" 
    enable-background="new 0 0 1059.674 464.977" 
    xml:space="preserve"
>

<g id="Muenchen_S7">

    <path id="Ei" fill="#963833" d="M787.5,0H272.173C143.773,0,0,104.088,0,232.488c0,128.4,143.773,232.488,272.173,232.488H787.5
    	c128.4,0,272.174-104.088,272.174-232.488C1059.674,104.088,915.901,0,787.5,0z"/>

  <g id="Univers_75_Black_504pt_1_">
    <path id="S" fill="#FFFFFF" d="M303.042,299.123c0.504,14.616,1.512,56.448,61.487,56.448c8.568,0,53.928,0,53.928-41.328
    	c0-17.136-7.056-28.728-31.248-35.28l-89.208-23.184c-25.2-6.552-90.216-23.688-90.216-99.791
    	c0-58.968,44.352-113.904,153.215-113.904c142.127,0,148.175,77.112,148.679,115.919H407.37
    	c0-11.088,0.504-50.399-47.879-50.399c-29.232,0-47.88,16.632-47.88,38.304c0,26.712,22.176,33.264,36.792,37.296l68.04,17.64
    	c48.384,12.6,105.84,27.72,105.84,104.832c0,81.144-69.553,117.432-160.776,117.432c-37.8,0-98.783-6.049-132.047-43.344
    	c-26.712-29.232-27.216-65.016-27.72-80.641H303.042z"/>
    <path id="7" fill="#FFFFFF" d="M567.636,66.78h277.703v70.56L713.796,415.042H601.403l144.648-277.199H567.636V66.78z"/>
  </g>

</g>
</svg>
