<?xml version="1.0" encoding="utf-8"?>

<!DOCTYPE svg PUBLIC "-//W3C//DTD SVG 1.0//EN"    "http://www.w3.org/TR/2001/REC-SVG-20010904/DTD/svg10.dtd">

<svg  
    xmlns="http://www.w3.org/2000/svg" 
    xmlns:xlink="http://www.w3.org/1999/xlink" 
    width="1059.674" 
    height="464.977" 
    viewBox="0 0 1059.674 464.977" 
    overflow="visible" 
    enable-background="new 0 0 1059.674 464.977" 
    xml:space="preserve"
>

<g id="Muenchen_S8">

  <path id="Ei" fill="#000" d="M787.5,0H272.173C143.773,0,0,104.088,0,232.488c0,128.4,143.773,232.488,272.173,232.488H787.5
  	c128.4,0,272.174-104.088,272.174-232.488C1059.674,104.088,915.901,0,787.5,0z"/>

  <g id="Univers_75_Black_504pt">
    <path id="S" fill="#FFCB06" d="M303.042,299.123c0.504,14.615,1.512,56.447,61.487,56.447c8.568,0,53.928,0,53.928-41.328
    	c0-17.136-7.056-28.728-31.248-35.279l-89.208-23.184c-25.2-6.553-90.216-23.688-90.216-99.792
    	c0-58.968,44.352-113.904,153.215-113.904c142.127,0,148.175,77.112,148.679,115.919H407.369
    	c0-11.088,0.504-50.399-47.879-50.399c-29.232,0-47.88,16.632-47.88,38.304c0,26.712,22.176,33.264,36.792,37.296l68.04,17.64
    	c48.384,12.6,105.84,27.72,105.84,104.831c0,81.145-69.552,117.432-160.776,117.432c-37.8,0-98.783-6.047-132.047-43.344
    	c-26.712-29.231-27.216-65.016-27.72-80.639H303.042z"/>
    <path id="8" fill="#FFCB06" d="M652.308,229.572c-43.344-4.536-78.625-30.744-78.625-79.632
    	c0-34.271,18.145-56.448,34.775-68.04c16.129-11.088,41.832-25.704,103.824-25.704c47.377,0,92.736,9.072,119.447,44.856
    	c10.584,13.608,15.625,29.736,15.625,47.376c0,29.736-17.137,70.56-76.104,81.647v2.52
    	c56.951,6.048,88.703,38.304,88.703,85.175c0,58.465-42.336,104.328-145.152,104.328c-117.432,0-154.727-51.408-154.727-101.808
    	c0-42.84,27.721-78.624,92.232-89.208V229.572z M768.729,310.715c0-26.208-17.639-49.896-59.471-49.896
    	c-42.84,0-56.951,27.216-56.951,49.392c0,17.64,9.07,48.888,57.959,48.888C756.634,359.099,768.729,331.379,768.729,310.715z
    	 M758.146,157.5c0-16.632-10.08-42.84-47.879-42.84c-25.199,0-47.375,13.608-47.375,42.336
    	c0,23.184,13.104,43.344,47.879,43.344C755.122,200.34,758.146,166.068,758.146,157.5z"/>
  </g>

</g>
</svg>
