<?xml version="1.0" encoding="UTF-8" standalone="no"?>
<!DOCTYPE svg PUBLIC "-//W3C//DTD SVG 1.1//EN" "http://www.w3.org/Graphics/SVG/1.1/DTD/svg11.dtd">
<svg width="100%" height="100%" viewBox="0 0 426 244" version="1.1" xmlns="http://www.w3.org/2000/svg" xmlns:xlink="http://www.w3.org/1999/xlink" xml:space="preserve" xmlns:serif="http://www.serif.com/" style="fill-rule:evenodd;clip-rule:evenodd;stroke-linejoin:round;stroke-miterlimit:1.41421;" ml-update="aware"><rect x="0" y="0" width="426" height="243.75" style="fill:#c20831;"/><path d="M212.523,142.897c0,9.765 -1.465,18.472 -4.394,26.121c-2.93,7.65 -7.121,14.119 -12.573,19.408c-5.452,5.289 -12.043,9.277 -19.774,11.962c-7.73,2.685 -16.396,4.028 -25.998,4.028c-19.856,0 -35.276,-5.33 -46.261,-15.99c-10.986,-10.66 -16.479,-25.836 -16.479,-45.529l0,-103.995l39.548,0l0,101.554c0,4.883 0.326,9.44 0.977,13.671c0.651,4.231 1.871,7.893 3.661,10.985c1.791,3.093 4.15,5.534 7.08,7.324c2.929,1.79 6.754,2.685 11.474,2.685c4.394,0 8.056,-0.895 10.985,-2.685c2.929,-1.79 5.33,-4.231 7.202,-7.324c1.871,-3.092 3.173,-6.754 3.906,-10.985c0.732,-4.231 1.098,-8.788 1.098,-13.671l0,-101.554l39.548,0l0,103.995Z" style="fill:#fff;fill-rule:nonzero;"/><path d="M242.794,201.731l0,-18.065c0,-8.3 1.668,-15.705 5.004,-22.215c3.337,-6.51 7.487,-12.451 12.45,-17.821c4.964,-5.371 10.376,-10.375 16.234,-15.014c5.859,-4.638 11.271,-9.276 16.235,-13.915c4.963,-4.638 9.113,-9.398 12.45,-14.281c3.336,-4.882 5.004,-10.253 5.004,-16.112c0,-5.696 -1.749,-10.212 -5.248,-13.548c-3.499,-3.337 -8.911,-5.005 -16.234,-5.005c-4.72,0 -9.684,0.407 -14.892,1.221c-5.208,0.813 -11.718,3.255 -19.53,7.323l-8.544,-25.876c7.324,-3.744 15.38,-6.266 24.168,-7.568c8.789,-1.302 17.17,-1.953 25.145,-1.953c7.649,0 14.728,0.854 21.238,2.563c6.51,1.709 12.166,4.313 16.967,7.812c4.801,3.499 8.585,8.015 11.351,13.549c2.767,5.533 4.15,12.043 4.15,19.529c0,7.324 -1.668,14.2 -5.004,20.629c-3.336,6.428 -7.487,12.49 -12.45,18.187c-4.964,5.696 -10.375,10.985 -16.234,15.868c-5.859,4.882 -11.271,9.52 -16.234,13.914c-4.964,4.395 -9.114,8.545 -12.451,12.451c-3.336,3.906 -5.004,7.649 -5.004,11.229l69.33,0l0,27.098l-107.901,0Z" style="fill:#fff;fill-rule:nonzero;"/></svg>