<?xml version="1.0" encoding="UTF-8" standalone="no"?>
<!DOCTYPE svg PUBLIC "-//W3C//DTD SVG 1.1//EN" "http://www.w3.org/Graphics/SVG/1.1/DTD/svg11.dtd">
<svg width="100%" height="100%" viewBox="0 0 426 244" version="1.1" xmlns="http://www.w3.org/2000/svg" xmlns:xlink="http://www.w3.org/1999/xlink" xml:space="preserve" xmlns:serif="http://www.serif.com/" style="fill-rule:evenodd;clip-rule:evenodd;stroke-linejoin:round;stroke-miterlimit:1.41421;" ml-update="aware"><rect x="0" y="0" width="426" height="243.75" style="fill:#ec6725;"/><path d="M212.523,142.897c0,9.765 -1.465,18.472 -4.394,26.121c-2.93,7.65 -7.121,14.119 -12.573,19.408c-5.452,5.289 -12.043,9.277 -19.774,11.962c-7.73,2.685 -16.396,4.028 -25.998,4.028c-19.856,0 -35.276,-5.33 -46.261,-15.99c-10.986,-10.66 -16.479,-25.836 -16.479,-45.529l0,-103.995l39.548,0l0,101.554c0,4.883 0.326,9.44 0.977,13.671c0.651,4.231 1.871,7.893 3.661,10.985c1.791,3.093 4.15,5.534 7.08,7.324c2.929,1.79 6.754,2.685 11.474,2.685c4.394,0 8.056,-0.895 10.985,-2.685c2.929,-1.79 5.33,-4.231 7.202,-7.324c1.871,-3.092 3.173,-6.754 3.906,-10.985c0.732,-4.231 1.098,-8.788 1.098,-13.671l0,-101.554l39.548,0l0,103.995Z" style="fill:#fff;fill-rule:nonzero;"/><path d="M348.01,153.639c0,16.763 -5.533,29.416 -16.6,37.961c-11.067,8.544 -26.772,12.816 -47.116,12.816c-2.604,0 -5.777,-0.163 -9.52,-0.488c-3.744,-0.326 -7.568,-0.733 -11.474,-1.221c-3.906,-0.488 -7.69,-1.139 -11.352,-1.953c-3.662,-0.814 -6.713,-1.709 -9.154,-2.685l2.685,-27.586c6.184,2.93 12.532,4.842 19.042,5.737c6.509,0.895 11.799,1.343 15.867,1.343c10.742,0 18.269,-2.32 22.582,-6.958c4.312,-4.638 6.469,-11.107 6.469,-19.407c0,-5.534 -2.279,-10.172 -6.836,-13.915c-4.556,-3.744 -10.497,-5.615 -17.82,-5.615l-24.657,0l0,-26.853l25.145,0c7.486,0 13.02,-1.994 16.6,-5.981c3.581,-3.988 5.371,-8.83 5.371,-14.526c0,-5.208 -1.79,-9.602 -5.371,-13.182c-3.58,-3.581 -9.032,-5.371 -16.356,-5.371c-6.022,0 -11.881,0.448 -17.577,1.343c-5.696,0.895 -11.636,2.563 -17.821,5.004l-4.882,-26.853c7.324,-2.279 14.851,-3.906 22.581,-4.882c7.731,-0.977 15.258,-1.465 22.581,-1.465c7.65,0 14.77,0.814 21.361,2.441c6.591,1.627 12.328,4.15 17.211,7.568c4.882,3.417 8.747,7.771 11.595,13.06c2.848,5.29 4.272,11.596 4.272,18.92c0,5.208 -1.057,9.805 -3.173,13.792c-2.116,3.988 -4.72,7.406 -7.812,10.254c-3.092,2.848 -6.469,5.126 -10.131,6.835c-3.662,1.709 -6.958,2.889 -9.887,3.54c4.231,0.813 8.382,2.238 12.45,4.272c4.069,2.034 7.731,4.679 10.986,7.934c3.255,3.255 5.859,7.079 7.812,11.473c1.953,4.395 2.929,9.277 2.929,14.648Z" style="fill:#fff;fill-rule:nonzero;"/></svg>