<?xml version="1.0" encoding="UTF-8" standalone="no"?>
<!DOCTYPE svg PUBLIC "-//W3C//DTD SVG 1.1//EN" "http://www.w3.org/Graphics/SVG/1.1/DTD/svg11.dtd">
<svg width="100%" height="100%" viewBox="0 0 426 244" version="1.1" xmlns="http://www.w3.org/2000/svg" xmlns:xlink="http://www.w3.org/1999/xlink" xml:space="preserve" xmlns:serif="http://www.serif.com/" style="fill-rule:evenodd;clip-rule:evenodd;stroke-linejoin:round;stroke-miterlimit:1.41421;" ml-update="aware"><rect x="0" y="0" width="426" height="243.75" style="fill:#00a984;"/><path d="M212.523,142.897c0,9.765 -1.465,18.472 -4.394,26.121c-2.93,7.65 -7.121,14.119 -12.573,19.408c-5.452,5.289 -12.043,9.277 -19.774,11.962c-7.73,2.685 -16.396,4.028 -25.998,4.028c-19.856,0 -35.276,-5.33 -46.261,-15.99c-10.986,-10.66 -16.479,-25.836 -16.479,-45.529l0,-103.995l39.548,0l0,101.554c0,4.883 0.326,9.44 0.977,13.671c0.651,4.231 1.871,7.893 3.661,10.985c1.791,3.093 4.15,5.534 7.08,7.324c2.929,1.79 6.754,2.685 11.474,2.685c4.394,0 8.056,-0.895 10.985,-2.685c2.929,-1.79 5.33,-4.231 7.202,-7.324c1.871,-3.092 3.173,-6.754 3.906,-10.985c0.732,-4.231 1.098,-8.788 1.098,-13.671l0,-101.554l39.548,0l0,103.995Z" style="fill:#fff;fill-rule:nonzero;"/><path d="M302.115,69.173l-2.197,0l-34.909,67.133l37.106,0l0,-67.133Zm37.351,92.766l0,39.792l-37.351,0l0,-39.792l-65.18,0l0,-19.774l55.415,-100.578l45.895,0l0,94.719l19.286,0l0,25.633l-18.065,0Z" style="fill:#fff;fill-rule:nonzero;"/></svg>