<?xml version="1.0" encoding="UTF-8" standalone="no"?>
<!DOCTYPE svg PUBLIC "-//W3C//DTD SVG 1.1//EN" "http://www.w3.org/Graphics/SVG/1.1/DTD/svg11.dtd">
<svg width="100%" height="100%" viewBox="0 0 426 244" version="1.1" xmlns="http://www.w3.org/2000/svg" xmlns:xlink="http://www.w3.org/1999/xlink" xml:space="preserve" xmlns:serif="http://www.serif.com/" style="fill-rule:evenodd;clip-rule:evenodd;stroke-linejoin:round;stroke-miterlimit:1.41421;" ml-update="aware"><rect x="0" y="0" width="426" height="243.75" style="fill:#bc7a00;"/><path d="M212.523,142.897c0,9.765 -1.465,18.472 -4.394,26.121c-2.93,7.65 -7.121,14.119 -12.573,19.408c-5.452,5.289 -12.043,9.277 -19.774,11.962c-7.73,2.685 -16.396,4.028 -25.998,4.028c-19.856,0 -35.276,-5.33 -46.261,-15.99c-10.986,-10.66 -16.479,-25.836 -16.479,-45.529l0,-103.995l39.548,0l0,101.554c0,4.883 0.326,9.44 0.977,13.671c0.651,4.231 1.871,7.893 3.661,10.985c1.791,3.093 4.15,5.534 7.08,7.324c2.929,1.79 6.754,2.685 11.474,2.685c4.394,0 8.056,-0.895 10.985,-2.685c2.929,-1.79 5.33,-4.231 7.202,-7.324c1.871,-3.092 3.173,-6.754 3.906,-10.985c0.732,-4.231 1.098,-8.788 1.098,-13.671l0,-101.554l39.548,0l0,103.995Z" style="fill:#fff;fill-rule:nonzero;"/><path d="M349.963,148.024c0,17.414 -5.696,31.166 -17.089,41.256c-11.392,10.091 -28.887,15.136 -52.486,15.136c-4.231,0 -9.276,-0.407 -15.135,-1.221c-5.859,-0.813 -12.857,-2.359 -20.995,-4.638l2.93,-27.586c6.998,2.767 13.467,4.517 19.408,5.249c5.94,0.732 10.7,1.099 14.281,1.099c10.253,0 17.821,-2.604 22.703,-7.812c4.882,-5.208 7.324,-11.962 7.324,-20.262c0,-7.324 -2.36,-13.264 -7.08,-17.821c-4.72,-4.557 -11.474,-6.836 -20.262,-6.836c-4.72,0 -10.009,0.326 -15.868,0.977c-5.859,0.651 -12.287,1.709 -19.285,3.173l2.929,-87.151l91.057,0l0,27.098l-57.857,0l-0.488,31.979c1.79,-0.325 4.191,-0.61 7.202,-0.854c3.011,-0.244 5.981,-0.366 8.91,-0.366c6.673,0 13.02,1.017 19.042,3.051c6.021,2.035 11.311,5.046 15.868,9.033c4.557,3.987 8.178,9.032 10.863,15.135c2.685,6.103 4.028,13.224 4.028,21.361Z" style="fill:#fff;fill-rule:nonzero;"/></svg>