<?xml version="1.0" encoding="UTF-8" standalone="no"?>
<!DOCTYPE svg PUBLIC "-//W3C//DTD SVG 1.1//EN" "http://www.w3.org/Graphics/SVG/1.1/DTD/svg11.dtd">
<svg width="100%" height="100%" viewBox="0 0 426 244" version="1.1" xmlns="http://www.w3.org/2000/svg" xmlns:xlink="http://www.w3.org/1999/xlink" xml:space="preserve" xmlns:serif="http://www.serif.com/" style="fill-rule:evenodd;clip-rule:evenodd;stroke-linejoin:round;stroke-miterlimit:1.41421;" ml-update="aware"><rect x="0" y="0" width="426" height="243.75" style="fill:#0065ae;"/><path d="M212.523,142.897c0,9.765 -1.465,18.472 -4.394,26.121c-2.93,7.65 -7.121,14.119 -12.573,19.408c-5.452,5.289 -12.043,9.277 -19.774,11.962c-7.73,2.685 -16.396,4.028 -25.998,4.028c-19.856,0 -35.276,-5.33 -46.261,-15.99c-10.986,-10.66 -16.479,-25.836 -16.479,-45.529l0,-103.995l39.548,0l0,101.554c0,4.883 0.326,9.44 0.977,13.671c0.651,4.231 1.871,7.893 3.661,10.985c1.791,3.093 4.15,5.534 7.08,7.324c2.929,1.79 6.754,2.685 11.474,2.685c4.394,0 8.056,-0.895 10.985,-2.685c2.929,-1.79 5.33,-4.231 7.202,-7.324c1.871,-3.092 3.173,-6.754 3.906,-10.985c0.732,-4.231 1.098,-8.788 1.098,-13.671l0,-101.554l39.548,0l0,103.995Z" style="fill:#fff;fill-rule:nonzero;"/><path d="M315.786,152.418c0,-3.58 -0.285,-6.998 -0.854,-10.253c-0.57,-3.255 -1.547,-6.144 -2.93,-8.666c-1.383,-2.523 -3.214,-4.516 -5.493,-5.981c-2.278,-1.465 -5.208,-2.197 -8.788,-2.197c-5.208,0 -9.521,2.522 -12.938,7.567c-3.418,5.046 -5.127,11.556 -5.127,19.53c0,3.255 0.285,6.591 0.854,10.009c0.57,3.418 1.547,6.51 2.93,9.277c1.383,2.766 3.214,5.045 5.493,6.835c2.278,1.79 5.208,2.685 8.788,2.685c3.58,0 6.551,-0.773 8.91,-2.319c2.36,-1.546 4.191,-3.662 5.493,-6.347c1.302,-2.685 2.238,-5.777 2.808,-9.276c0.569,-3.5 0.854,-7.121 0.854,-10.864Zm38.571,-0.732c0,6.51 -1.139,12.938 -3.418,19.285c-2.278,6.348 -5.736,12.003 -10.375,16.967c-4.638,4.964 -10.497,8.951 -17.576,11.962c-7.08,3.011 -15.502,4.516 -25.267,4.516c-10.253,0 -18.96,-1.587 -26.121,-4.76c-7.161,-3.174 -12.938,-7.446 -17.333,-12.817c-4.394,-5.37 -7.608,-11.636 -9.642,-18.797c-2.035,-7.161 -3.052,-14.729 -3.052,-22.703c0,-11.067 1.709,-22.053 5.127,-32.957c3.417,-10.904 8.137,-21.279 14.159,-31.125c6.021,-9.846 13.101,-18.96 21.238,-27.342c8.138,-8.381 16.926,-15.501 26.365,-21.36l31.736,16.844c-5.045,3.092 -10.66,7.364 -16.844,12.816c-6.185,5.452 -12.084,11.352 -17.699,17.699c-5.615,6.347 -10.538,12.857 -14.769,19.53c-4.232,6.673 -6.917,12.857 -8.056,18.553c4.231,-5.859 9.032,-9.968 14.403,-12.328c5.37,-2.36 10.741,-3.54 16.112,-3.54c7.161,0 13.304,1.221 18.431,3.662c5.126,2.441 9.358,5.859 12.694,10.253c3.337,4.394 5.818,9.643 7.446,15.746c1.627,6.103 2.441,12.735 2.441,19.896Z" style="fill:#fff;fill-rule:nonzero;"/></svg>