<?xml version="1.0" encoding="UTF-8" standalone="no"?>
<!DOCTYPE svg PUBLIC "-//W3C//DTD SVG 1.1//EN" "http://www.w3.org/Graphics/SVG/1.1/DTD/svg11.dtd">
<svg width="100%" height="100%" viewBox="0 0 426 244" version="1.1" xmlns="http://www.w3.org/2000/svg" xmlns:xlink="http://www.w3.org/1999/xlink" xml:space="preserve" xmlns:serif="http://www.serif.com/" style="fill-rule:evenodd;clip-rule:evenodd;stroke-linejoin:round;stroke-miterlimit:1.41421;" ml-update="aware"><rect x="0" y="0" width="426" height="243.75" style="fill:#c20831;"/><path d="M0,243.75l0,-243.75l426,0l-426,243.75Z" style="fill:#52822f;"/><path d="M212.523,142.897c0,9.765 -1.465,18.472 -4.394,26.121c-2.93,7.65 -7.121,14.119 -12.573,19.408c-5.452,5.289 -12.043,9.277 -19.774,11.962c-7.73,2.685 -16.396,4.028 -25.998,4.028c-19.856,0 -35.276,-5.33 -46.261,-15.99c-10.986,-10.66 -16.479,-25.836 -16.479,-45.529l0,-103.995l39.548,0l0,101.554c0,4.883 0.326,9.44 0.977,13.671c0.651,4.231 1.871,7.893 3.661,10.985c1.791,3.093 4.15,5.534 7.08,7.324c2.929,1.79 6.754,2.685 11.474,2.685c4.394,0 8.056,-0.895 10.985,-2.685c2.929,-1.79 5.33,-4.231 7.202,-7.324c1.871,-3.092 3.173,-6.754 3.906,-10.985c0.732,-4.231 1.098,-8.788 1.098,-13.671l0,-101.554l39.548,0l0,103.995Z" style="fill:#fff;fill-rule:nonzero;"/><path d="M351.184,57.943c-4.883,11.393 -9.847,23.68 -14.892,36.863c-5.045,13.182 -10.09,26.487 -15.135,39.913c-5.046,13.427 -10.009,26.61 -14.892,39.548c-4.882,12.938 -9.439,24.778 -13.671,35.52l-36.374,-14.159c4.069,-10.091 8.463,-20.791 13.183,-32.102c4.72,-11.311 9.521,-22.582 14.403,-33.811c4.883,-11.23 9.684,-22.093 14.403,-32.59c4.72,-10.498 9.033,-19.978 12.939,-28.44l-68.11,0l0,-27.098l108.146,0l0,16.356Z" style="fill:#fff;fill-rule:nonzero;"/></svg>