<?xml version="1.0" encoding="UTF-8" standalone="no"?>
<!DOCTYPE svg PUBLIC "-//W3C//DTD SVG 1.1//EN" "http://www.w3.org/Graphics/SVG/1.1/DTD/svg11.dtd">
<svg width="100%" height="100%" viewBox="0 0 426 244" version="1.1" xmlns="http://www.w3.org/2000/svg" xmlns:xlink="http://www.w3.org/1999/xlink" xml:space="preserve" xmlns:serif="http://www.serif.com/" style="fill-rule:evenodd;clip-rule:evenodd;stroke-linejoin:round;stroke-miterlimit:1.41421;" ml-update="aware"><rect x="0" y="0" width="426" height="243.75" style="fill:#ec6725;"/><path d="M0,243.75l0,-243.75l426,0l-426,243.75Z" style="fill:#c20831;"/><path d="M212.523,142.897c0,9.765 -1.465,18.472 -4.394,26.121c-2.93,7.65 -7.121,14.119 -12.573,19.408c-5.452,5.289 -12.043,9.277 -19.774,11.962c-7.73,2.685 -16.396,4.028 -25.998,4.028c-19.856,0 -35.276,-5.33 -46.261,-15.99c-10.986,-10.66 -16.479,-25.836 -16.479,-45.529l0,-103.995l39.548,0l0,101.554c0,4.883 0.326,9.44 0.977,13.671c0.651,4.231 1.871,7.893 3.661,10.985c1.791,3.093 4.15,5.534 7.08,7.324c2.929,1.79 6.754,2.685 11.474,2.685c4.394,0 8.056,-0.895 10.985,-2.685c2.929,-1.79 5.33,-4.231 7.202,-7.324c1.871,-3.092 3.173,-6.754 3.906,-10.985c0.732,-4.231 1.098,-8.788 1.098,-13.671l0,-101.554l39.548,0l0,103.995Z" style="fill:#fff;fill-rule:nonzero;"/><path d="M317.251,153.883c0,-3.581 -0.366,-6.958 -1.099,-10.131c-0.732,-3.174 -1.871,-5.981 -3.418,-8.422c-1.546,-2.442 -3.539,-4.354 -5.98,-5.737c-2.442,-1.384 -5.371,-2.075 -8.789,-2.075c-6.998,0 -11.962,2.563 -14.891,7.69c-2.93,5.126 -4.394,11.351 -4.394,18.675c0,3.418 0.325,6.754 0.976,10.009c0.651,3.255 1.709,6.184 3.174,8.788c1.464,2.604 3.417,4.679 5.859,6.225c2.441,1.546 5.533,2.319 9.276,2.319c4.069,0 7.364,-0.773 9.887,-2.319c2.523,-1.546 4.476,-3.621 5.859,-6.225c1.383,-2.604 2.319,-5.533 2.807,-8.788c0.489,-3.255 0.733,-6.591 0.733,-10.009Zm-2.93,-70.307c0,-2.767 -0.285,-5.452 -0.854,-8.056c-0.57,-2.604 -1.506,-4.882 -2.808,-6.835c-1.302,-1.953 -3.01,-3.54 -5.126,-4.761c-2.116,-1.22 -4.638,-1.831 -7.568,-1.831c-5.859,0 -10.05,2.157 -12.572,6.47c-2.523,4.312 -3.784,9.317 -3.784,15.013c0,2.604 0.244,5.249 0.732,7.934c0.489,2.685 1.384,5.167 2.686,7.446c1.302,2.278 2.97,4.15 5.004,5.614c2.035,1.465 4.679,2.197 7.934,2.197c3.092,0 5.656,-0.65 7.69,-1.952c2.034,-1.302 3.702,-3.052 5.004,-5.249c1.302,-2.197 2.238,-4.679 2.808,-7.446c0.569,-2.766 0.854,-5.615 0.854,-8.544Zm40.524,73.236c0,6.673 -1.342,12.939 -4.028,18.798c-2.685,5.859 -6.55,10.904 -11.595,15.135c-5.046,4.232 -11.067,7.568 -18.065,10.009c-6.998,2.441 -14.729,3.662 -23.192,3.662c-8.3,0 -15.908,-1.058 -22.825,-3.174c-6.917,-2.115 -12.898,-5.208 -17.943,-9.276c-5.045,-4.069 -8.992,-9.073 -11.84,-15.014c-2.848,-5.94 -4.272,-12.653 -4.272,-20.14c0,-6.021 1.058,-11.433 3.173,-16.234c2.116,-4.801 4.72,-8.91 7.812,-12.328c3.093,-3.418 6.47,-6.184 10.131,-8.3c3.662,-2.116 7.121,-3.58 10.376,-4.394c-2.442,-0.977 -5.208,-2.36 -8.301,-4.15c-3.092,-1.79 -6.062,-4.11 -8.91,-6.958c-2.848,-2.848 -5.208,-6.265 -7.08,-10.253c-1.871,-3.987 -2.807,-8.666 -2.807,-14.037c0,-6.51 1.424,-12.328 4.272,-17.454c2.848,-5.127 6.673,-9.44 11.474,-12.939c4.801,-3.499 10.375,-6.184 16.722,-8.056c6.347,-1.871 13.02,-2.807 20.018,-2.807c7.161,0 13.915,0.854 20.262,2.563c6.347,1.709 11.921,4.313 16.723,7.812c4.801,3.499 8.584,7.812 11.351,12.938c2.767,5.127 4.15,11.108 4.15,17.943c0,5.696 -1.017,10.579 -3.051,14.648c-2.035,4.068 -4.435,7.445 -7.202,10.131c-2.767,2.685 -5.737,4.841 -8.91,6.469c-3.174,1.627 -5.819,2.767 -7.934,3.417c3.743,1.465 7.486,3.296 11.229,5.493c3.744,2.197 7.121,4.923 10.131,8.178c3.011,3.255 5.452,7.202 7.324,11.84c1.872,4.638 2.807,10.131 2.807,16.478Z" style="fill:#fff;fill-rule:nonzero;"/></svg>