<?xml version="1.0" encoding="utf-8"?>

<!DOCTYPE svg PUBLIC "-//W3C//DTD SVG 1.0//EN"    "http://www.w3.org/TR/2001/REC-SVG-20010904/DTD/svg10.dtd">

<svg  
    xmlns="http://www.w3.org/2000/svg" 
    xmlns:xlink="http://www.w3.org/1999/xlink" 
    width="1059.674" 
    height="464.977" 
    viewBox="0 0 1059.674 464.977" 
    overflow="visible" 
    enable-background="new 0 0 1059.674 464.977" 
    xml:space="preserve"
>

<g id="Ebene_1">

  <path id="Ei" fill="#71BF44" d="M787.5,0H272.173C143.773,0,0,104.088,0,232.488c0,128.4,143.773,232.488,272.173,232.488H787.5
  	c128.4,0,272.174-104.088,272.174-232.488C1059.674,104.088,915.901,0,787.5,0z"/>

  <g id="Univers_75_Black_420pt">
    <path id="S" fill="#FFFFFF" d="M304.841,299.119c0.504,14.615,1.512,56.448,61.488,56.448c8.568,0,53.928,0,53.928-41.329
    	c0-17.135-7.056-28.727-31.248-35.279l-89.208-23.183c-25.2-6.554-90.216-23.687-90.216-99.791
    	c0-58.968,44.352-113.904,153.216-113.904c142.127,0,148.175,77.112,148.679,115.919H409.169
    	c0-11.087,0.504-50.399-47.88-50.399c-29.232,0-47.879,16.632-47.879,38.304c0,26.711,22.176,33.264,36.792,37.295l68.04,17.64
    	c48.384,12.6,105.84,27.72,105.84,104.829c0,81.145-69.552,117.432-160.775,117.432c-37.8,0-98.784-6.048-132.047-43.345
    	c-26.712-29.23-27.216-65.016-27.72-80.639H304.841z"/>
    <path id="2" fill="#FFFFFF" d="M563.892,342.462C643.019,284,710.05,233.601,735.754,196.809
    	c6.552-10.584,12.6-23.688,12.6-39.816c0-31.248-25.2-35.28-37.8-35.28c-37.799,0-40.319,31.248-41.327,40.824h-98.279
    	c0-11.088,1.008-38.304,25.2-67.536c29.734-35.784,89.711-40.32,119.446-40.32c53.425,0,91.728,13.608,114.408,42.84
    	c13.104,16.632,18.647,36.288,18.647,56.447c0,72.576-68.544,121.965-165.312,191.517h166.319v69.553H563.892V342.462z"/>
  </g>

</g>

</svg>
