<?xml version="1.0" encoding="utf-8"?>

<!DOCTYPE svg PUBLIC "-//W3C//DTD SVG 1.0//EN"    "http://www.w3.org/TR/2001/REC-SVG-20010904/DTD/svg10.dtd">

<svg  
    xmlns="http://www.w3.org/2000/svg" 
    xmlns:xlink="http://www.w3.org/1999/xlink" 
    width="1059.674" 
    height="464.977" 
    viewBox="0 0 1059.674 464.977" 
    overflow="visible" 
    enable-background="new 0 0 1059.674 464.977" 
    xml:space="preserve"
>

<g id="Muenchen_S20">

    <path id="Ei" fill="#F05A73" d="M787.5,0H272.173C143.773,0,0,104.088,0,232.488c0,128.4,143.773,232.488,272.173,232.488H787.5
    	c128.4,0,272.174-104.088,272.174-232.488C1059.674,104.088,915.901,0,787.5,0z"/>

  <g id="Univers_75_Black_420pt_120%_hoch">
    <path fill="#FFFFFF" d="M200.164,298.984c0.42,14.615,1.26,56.447,51.24,56.447c7.14,0,44.94,0,44.94-41.328
    	c0-17.135-5.88-28.727-26.04-35.277l-74.34-23.186c-21-6.553-75.18-23.688-75.18-99.791c0-58.968,36.96-113.904,127.68-113.904
    	c118.439,0,123.479,77.112,123.899,115.919h-85.26c0-11.088,0.42-50.399-39.9-50.399c-24.36,0-39.899,16.632-39.899,38.304
    	c0,26.712,18.48,33.264,30.66,37.296l56.7,17.64c40.32,12.6,88.2,27.72,88.2,104.832c0,81.145-57.96,117.432-133.979,117.432
    	c-31.5,0-82.32-6.049-110.04-43.344c-22.26-29.232-22.68-65.016-23.1-80.641H200.164z"/>
    <path fill="#FFFFFF" d="M416.038,342.328c65.94-58.463,121.799-108.863,143.219-145.655c5.46-10.584,10.5-23.688,10.5-39.815
    	c0-31.248-21-35.28-31.5-35.28c-31.5,0-33.6,31.248-34.438,40.824h-81.899c0-11.088,0.84-38.304,21-67.536
    	c24.78-35.783,74.759-40.319,99.54-40.319c44.521,0,76.439,13.608,95.34,42.84c10.92,16.632,15.54,36.288,15.54,56.447
    	c0,72.576-57.12,121.968-137.76,191.519h138.6v69.553H416.038V342.328z"/>
    <path fill="#FFFFFF" d="M728.936,100.41c25.619-37.296,63-44.856,89.459-44.856c55.439,0,80.22,26.208,92.819,45.36
    	c19.319,27.72,34.439,67.535,34.439,137.087c0,100.295-32.761,183.959-125.999,183.959c-33.602,0-67.2-12.096-89.04-42.336
    	c-31.92-43.848-36.54-106.344-36.54-141.119C694.074,205.241,698.694,143.753,728.936,100.41z M819.234,355.431
    	c13.02,0,26.039-7.559,32.34-20.664c12.6-27.215,12.6-85.176,12.6-92.734c0-17.64-1.26-58.464-7.14-84.167
    	c-2.94-12.6-9.66-35.783-36.54-35.783c-23.521,0-44.1,12.096-44.1,117.935C776.395,314.609,784.794,355.431,819.234,355.431z"/>
  </g>

</g>

</svg>
