<?xml version="1.0" encoding="UTF-8" standalone="no"?>
<!DOCTYPE svg PUBLIC "-//W3C//DTD SVG 1.1//EN" "http://www.w3.org/Graphics/SVG/1.1/DTD/svg11.dtd">
<svg width="100%" height="100%" viewBox="0 0 129 56" version="1.1" xmlns="http://www.w3.org/2000/svg" xmlns:xlink="http://www.w3.org/1999/xlink" xml:space="preserve" xmlns:serif="http://www.serif.com/" style="fill-rule:evenodd;clip-rule:evenodd;stroke-linejoin:round;stroke-miterlimit:2;">
    <path d="M129,27.984c0,15.468 -13.063,27.985 -29.175,27.985l-70.628,-0c-16.134,-0 -29.197,-12.517 -29.197,-27.985c-0,-15.458 13.063,-27.984 29.197,-27.984l70.628,0c16.112,0 29.175,12.526 29.175,27.984Z" style="fill:#00547e;fill-rule:nonzero;"/>
    <path d="M38.618,34.796l0,0.408c0,4.227 2.318,6.175 7.242,6.175c4.381,-0 6.544,-1.479 6.544,-4.455c0,-3.745 -3.522,-3.926 -9.864,-5.349c-9.15,-2.086 -13.429,-5.173 -13.429,-12.427c0,-8.626 5.839,-13.498 16.951,-13.498c10.32,0 15.29,3.857 15.759,12.905l-9.774,-0l0,-0.121c0,-3.156 -2.107,-4.76 -6.286,-4.76c-4.137,0 -6.287,1.492 -6.287,3.99c0,3.445 3.066,3.69 9.262,5.117c4.679,1.067 8.347,1.837 11.013,4.58c1.96,2.017 3.061,5.048 3.061,8.613c0,8.75 -6.127,13.811 -17.497,13.811c-11.321,0 -16.959,-4.648 -16.959,-14.112l0,-0.877l10.264,-0Z" style="fill:#fafffe;fill-rule:nonzero;"/>
    <path d="M68.551,32.585l1.07,-24.974l27.963,0l0,8.024l-19.023,-0l-0.649,9.933c2.563,-2.675 5.538,-3.745 9.464,-3.745c8.548,-0 13.326,5.181 13.326,13.618c-0,9.215 -5.827,14.332 -16.904,14.332c-10.754,-0 -16.004,-3.866 -16.047,-12.483l10.049,-0c0.271,2.967 2.374,4.76 5.852,4.76c4.068,-0 6.287,-2.318 6.287,-6.545c-0,-4.055 -2.262,-6.54 -5.784,-6.54c-2.876,-0 -4.626,1.002 -5.697,3.62l-9.907,0Z" style="fill:#fafffe;fill-rule:nonzero;"/>
</svg>
